<svg xmlns="http://www.w3.org/2000/svg" width="35" height="38" fill-rule="evenodd">
<path d="M1.55 7.25C5.44 2.816 11.137 0 17.497 0s12.057 2.816 15.947 7.25c.691.788.615 1.988-.17 2.682a1.89 1.89 0 0 1-2.672-.171C27.397 6.107 22.719 3.8 17.497 3.8S7.598 6.107 4.392 9.761a1.89 1.89 0 0 1-2.672.171C.936 9.239.86 8.038 1.55 7.25zM0 22.794c0-9.704 7.835-17.57 17.5-17.57S35 13.09 35 22.794c0 3.934-3.177 7.123-7.096 7.123s-7.096-3.189-7.096-7.123c0-1.836-1.483-3.323-3.31-3.323s-3.31 1.487-3.31 3.323c0 4.932 2.584 9.259 6.473 11.694.887.555 1.158 1.727.605 2.618a1.89 1.89 0 0 1-2.608.607c-4.951-3.099-8.256-8.62-8.256-14.918 0-3.934 3.177-7.123 7.096-7.123s7.096 3.19 7.096 7.123c0 1.836 1.483 3.323 3.31 3.323s3.31-1.487 3.31-3.323c0-7.607-6.141-13.77-13.714-13.77S3.786 15.187 3.786 22.794a24.39 24.39 0 0 0 .567 5.212 1.9 1.9 0 0 1-1.444 2.263c-1.021.225-2.031-.424-2.255-1.449C.231 26.881 0 24.865 0 22.794h0zm17.499-1.9c1.046 0 1.893.851 1.893 1.9 0 4.722 3.811 8.547 8.511 8.547.072 0 .119-.003.206-.009l.249-.016c1.044-.058 1.937.744 1.995 1.792a1.9 1.9 0 0 1-1.785 2.003l-.079.005c-.136.009-.38.026-.587.026-6.792 0-12.297-5.528-12.297-12.347 0-1.049.848-1.9 1.893-1.9h0z" fill="#1e293b" class="favicon-lines"/>
<path d="M17.495 14.247c-4.7 0-8.511 3.825-8.511 8.547 0 4.052 1.265 7.8 3.418 10.884.6.859.392 2.044-.464 2.647a1.89 1.89 0 0 1-2.637-.466 22.75 22.75 0 0 1-4.104-13.064c0-6.819 5.505-12.347 12.297-12.347s12.297 5.528 12.297 12.347c0 1.049-.848 1.9-1.893 1.9s-1.893-.851-1.893-1.9c0-4.722-3.811-8.547-8.511-8.547z" fill="#f58320"/>
<style>
@media (prefers-color-scheme: dark){.favicon-lines {fill: white;}}
</style>
</svg>